<svg xmlns="http://www.w3.org/2000/svg" width="720" height="283.2" viewBox="0 0 7200 2832" role="img" aria-labelledby="title">
<title id="title">deyroute doctor</title>
<style>
rect{shape-rendering:crispEdges}
.w{fill:#161b22;stroke:#30363d;stroke-width:10;shape-rendering:auto}
.l{fill:#30363d}
.tt{fill:#9da7b3;font-family:ui-monospace,SFMono-Regular,'SF Mono',Menlo,Consolas,'Liberation Mono','DejaVu Sans Mono',monospace;font-size:120px}
text{fill:#e6edf3;font-family:ui-monospace,SFMono-Regular,'SF Mono',Menlo,Consolas,'Liberation Mono','DejaVu Sans Mono',monospace;font-size:140px}
.b{font-weight:700}
.k{fill:none;stroke-linecap:round;stroke-linejoin:round}
.f2{fill:#3fb950}
.f3{fill:#d29922}
.f4{fill:#58a6ff}
.f6{fill:#39c5cf}
</style>
<rect class="w" x="5" y="5" width="7190" height="2822" rx="120"/>
<circle cx="240" cy="160" r="60" fill="#ff5f57"/>
<circle cx="440" cy="160" r="60" fill="#febc2e"/>
<circle cx="640" cy="160" r="60" fill="#28c840"/>
<text class="tt" x="3600" y="202" text-anchor="middle">deyroute doctor</text>
<rect class="l" x="10" y="320" width="7180" height="10"/>
<g xml:space="preserve">
<text x="240" y="628" class="f2 b" textLength="756">root@ir-1</text>
<text x="996" y="628">:</text>
<text x="1080" y="628" class="f4 b">~</text>
<text x="1164" y="628">#</text>
<text x="1332" y="628" textLength="672">deyroute</text>
<text x="2088" y="628" textLength="504">doctor</text>
<text x="240" y="804" textLength="672">DEYROUTE</text>
<text x="996" y="804" textLength="588">doctor:</text>
<text x="1668" y="804" textLength="252">hub</text>
<text x="2004" y="804" textLength="504">1.0.0,</text>
<text x="2592" y="804" textLength="840">2026-09-30</text>
<text x="3516" y="804" textLength="420">12:00</text>
<text x="4020" y="804" textLength="252">UTC</text>
<text x="240" y="980" textLength="672">Tunnels:</text>
<text x="996" y="980" textLength="252">3/3</text>
<text x="1332" y="980" textLength="168">UP</text>
<text x="1752" y="980" textLength="504">Nodes:</text>
<text x="2340" y="980" textLength="252">2/2</text>
<text x="2676" y="980" textLength="504">online</text>
<text x="240" y="1156" textLength="588">Result:</text>
<text x="912" y="1156">0</text>
<text x="1080" y="1156" textLength="504">ERROR,</text>
<text x="1668" y="1156">1</text>
<text x="1836" y="1156" textLength="420">WARN,</text>
<text x="2340" y="1156">1</text>
<text x="2508" y="1156" textLength="336">INFO</text>
<path class="f3" d="M282 1258L318 1322L246 1322Z"/>
<text x="408" y="1332" class="f3 b" textLength="336">WARN</text>
<text x="912" y="1332" textLength="252">R08</text>
<text x="1248" y="1332">·</text>
<text x="1416" y="1332" textLength="924">Certificate</text>
<text x="2424" y="1332" textLength="168">of</text>
<text x="2676" y="1332" textLength="504">tunnel</text>
<text x="3264" y="1332" textLength="420">panel</text>
<text x="3768" y="1332" textLength="588">expires</text>
<text x="4440" y="1332" textLength="168">in</text>
<text x="4692" y="1332" textLength="168">12</text>
<text x="4944" y="1332" textLength="336">days</text>
<text x="5364" y="1332" textLength="1008">(2026-10-12)</text>
<text x="576" y="1508" textLength="336">Fix:</text>
<text x="996" y="1508" textLength="420">renew</text>
<text x="1500" y="1508" textLength="252">it:</text>
<text x="1836" y="1508" textLength="672">deyroute</text>
<text x="2592" y="1508" textLength="672">security</text>
<text x="3348" y="1508" textLength="252">tls</text>
<text x="3684" y="1508" textLength="420">renew</text>
<text x="4188" y="1508" textLength="672">--tunnel</text>
<text x="4944" y="1508" textLength="420">panel</text>
<circle class="f6" cx="282" cy="1644" r="30"/>
<text x="408" y="1684" class="f6 b" textLength="336">INFO</text>
<text x="912" y="1684" textLength="252">R10</text>
<text x="1248" y="1684">·</text>
<text x="1416" y="1684" textLength="252">UDP</text>
<text x="1752" y="1684" textLength="168">is</text>
<text x="2004" y="1684" textLength="588">blocked</text>
<text x="2676" y="1684" textLength="588">between</text>
<text x="3348" y="1684" textLength="252">the</text>
<text x="3684" y="1684" textLength="252">hub</text>
<text x="4020" y="1684" textLength="252">and</text>
<text x="4356" y="1684" textLength="336">node</text>
<text x="4776" y="1684" textLength="420">de-1:</text>
<text x="5280" y="1684" textLength="252">UDP</text>
<text x="5616" y="1684" textLength="840">transports</text>
<text x="6540" y="1684" textLength="252">are</text>
<text x="6876" y="1684">s</text>
<text x="240" y="1860" textLength="504">kipped</text>
<text x="576" y="2036" textLength="336">Fix:</text>
<text x="996" y="2036" textLength="588">nothing</text>
<text x="1668" y="2036" textLength="168">to</text>
<text x="1920" y="2036" textLength="168">do</text>
<text x="2172" y="2036" textLength="420">while</text>
<text x="2676" y="2036" textLength="252">TCP</text>
<text x="3012" y="2036" textLength="840">transports</text>
<text x="3936" y="2036" textLength="420">work;</text>
<text x="4440" y="2036" textLength="588">skipped</text>
<text x="5112" y="2036" textLength="420">rungs</text>
<text x="5616" y="2036" textLength="252">are</text>
<text x="5952" y="2036" textLength="756">re-tested</text>
<text x="6792" y="2036" textLength="168">ev</text>
<text x="240" y="2212" textLength="252">ery</text>
<text x="576" y="2212" textLength="168">30</text>
<text x="828" y="2212" textLength="588">minutes</text>
<text x="240" y="2388" textLength="588">Support</text>
<text x="912" y="2388" textLength="420">file:</text>
<text x="1416" y="2388" textLength="3780">/root/deyroute-doctor-20260930T120000Z.tar.gz</text>
<text x="5280" y="2388" textLength="672">(secrets</text>
<text x="6036" y="2388" textLength="672">removed;</text>
<text x="6792" y="2388" textLength="168">se</text>
<text x="240" y="2564" textLength="168">nd</text>
<text x="492" y="2564" textLength="168">it</text>
<text x="744" y="2564" textLength="336">with</text>
<text x="1164" y="2564" textLength="252">the</text>
<text x="1500" y="2564" textLength="588">summary</text>
<text x="2172" y="2564" textLength="504">above)</text>
</g>
</svg>
